<svg width="758" height="321" viewBox="0 0 758 321" fill="none" xmlns="http://www.w3.org/2000/svg">
<path opacity="0.1" d="M136.213 313.845V263.032H0.000390943V214.994L98.4239 6.40496H157.136L58.7129 214.994H136.213V134.932H188.307V214.994H217.13V263.032H188.307V313.845H136.213ZM378.92 320.25C357.143 320.25 337.928 315.624 321.275 306.372C304.622 296.978 291.598 283.955 282.204 267.302C272.952 250.649 268.327 231.434 268.327 209.657V110.593C268.327 88.816 272.952 69.601 282.204 52.948C291.598 36.295 304.622 23.3426 321.275 14.091C337.928 4.69696 357.143 -3.54052e-05 378.92 -3.54052e-05C400.697 -3.54052e-05 419.84 4.69696 436.351 14.091C453.004 23.3426 466.028 36.295 475.422 52.948C484.816 69.601 489.513 88.816 489.513 110.593V209.657C489.513 231.434 484.816 250.649 475.422 267.302C466.028 283.955 453.004 296.978 436.351 306.372C419.84 315.624 400.697 320.25 378.92 320.25ZM378.92 271.358C389.737 271.358 399.558 268.796 408.383 263.672C417.207 258.406 424.182 251.432 429.306 242.749C434.43 233.925 436.992 224.104 436.992 213.286V106.75C436.992 95.7903 434.43 85.9693 429.306 77.287C424.182 68.4623 417.207 61.488 408.383 56.364C399.558 51.0976 389.737 48.4645 378.92 48.4645C368.102 48.4645 358.281 51.0976 349.457 56.364C340.632 61.488 333.658 68.4623 328.534 77.287C323.41 85.9693 320.848 95.7903 320.848 106.75V213.286C320.848 224.104 323.41 233.925 328.534 242.749C333.658 251.432 340.632 258.406 349.457 263.672C358.281 268.796 368.102 271.358 378.92 271.358ZM677.052 313.845V263.032H540.839V214.994L639.263 6.40496H697.975L599.552 214.994H677.052V134.932H729.146V214.994H757.969V263.032H729.146V313.845H677.052Z" fill="#454545"/>
</svg>
